<?xml version="1.0" encoding="utf-8"?>
<!-- Generator: Adobe Illustrator 23.0.1, SVG Export Plug-In . SVG Version: 6.00 Build 0)  -->
<svg version="1.1" id="Layer_1" xmlns="http://www.w3.org/2000/svg" xmlns:xlink="http://www.w3.org/1999/xlink" x="0px" y="0px"
	 viewBox="0 0 216 216" style="enable-background:new 0 0 216 216;" xml:space="preserve">
<style type="text/css">
	.st0{fill:none;stroke:#000000;stroke-width:5;stroke-miterlimit:10;}
	.st1{fill:none;stroke:#000000;stroke-width:6;stroke-miterlimit:10;}
</style>
<g>
	<line class="st0" x1="53.8" y1="63.5" x2="76.1" y2="79.7"/>
	<line class="st0" x1="102.4" y1="82.9" x2="86.3" y2="82.9"/>
	<line class="st0" x1="104.7" y1="68.4" x2="85.5" y2="80"/>
	<line class="st0" x1="102.3" y1="48.2" x2="83.6" y2="78.2"/>
	<line class="st0" x1="102.2" y1="38.7" x2="96.5" y2="29.7"/>
	<line class="st0" x1="108.8" y1="25.4" x2="106.3" y2="37.9"/>
	<line class="st0" x1="118.5" y1="36.3" x2="110.2" y2="40.7"/>
	<line class="st1" x1="122.1" y1="120.3" x2="122.1" y2="120.3"/>
	<line class="st0" x1="69.8" y1="133.9" x2="25.4" y2="145.2"/>
	<line class="st0" x1="51" y1="104.8" x2="73.4" y2="117.7"/>
	<line class="st0" x1="80.5" y1="109.7" x2="49" y2="68.6"/>
	<line class="st1" x1="80.5" y1="109.7" x2="80.5" y2="109.7"/>
	<line class="st0" x1="166.4" y1="75" x2="118.3" y2="114.1"/>
	<path class="st1" d="M102.3,48.2c-1.6-1-2.7-2.8-2.7-4.8c0-2,1-3.7,2.6-4.7"/>
	<path class="st1" d="M106.3,37.9c1.7,0.3,3.1,1.4,3.9,2.8"/>
	<path class="st1" d="M102.2,38.7c0.9-0.6,1.9-0.9,3-0.9c0.4,0,0.7,0,1.1,0.1"/>
	<path class="st1" d="M102.3,48.2c0.9,0.5,1.9,0.8,3,0.8c3.1,0,5.6-2.5,5.6-5.6c0-1-0.2-1.9-0.7-2.7"/>
	<path class="st1" d="M76.1,79.7c-0.7,0.9-1.1,2.1-1.1,3.3c0,3.1,2.5,5.6,5.6,5.6s5.6-2.5,5.6-5.6"/>
	<path class="st1" d="M85.5,80c-0.5-0.8-1.1-1.4-1.8-1.9"/>
	<path class="st1" d="M76.1,79.7c1-1.4,2.7-2.3,4.5-2.3c1.1,0,2.1,0.3,3,0.8"/>
	<path class="st1" d="M85.5,80c0.5,0.8,0.8,1.8,0.8,2.9"/>
	<path class="st1" d="M172.6,132.4c1.9,4.2,6.1,7.2,11,7.2c6.7,0,12.1-5.4,12.1-12.1c0-6.7-5.4-12.1-12.1-12.1
		c-6.7,0-12.1,5.4-12.1,12.1C171.6,129.3,172,130.9,172.6,132.4"/>
	<circle class="st1" cx="16.4" cy="147.6" r="9.1"/>
	<path class="st1" d="M51,104.8c0.9-1.6,1.5-3.4,1.5-5.4c0-6-4.9-10.8-10.9-10.8s-10.9,4.9-10.9,10.8s4.9,10.8,10.9,10.8
		C45.6,110.2,49.1,108,51,104.8"/>
	<path class="st1" d="M53.8,63.5c2.9-4,4.6-8.8,4.6-14.1c0-13.3-10.8-24.1-24.1-24.1S10.3,36.2,10.3,49.5s10.8,24.1,24.1,24.1
		c5.5,0,10.6-1.8,14.6-5C50.8,67.1,52.5,65.4,53.8,63.5"/>
	<path class="st1" d="M166.4,75c4.3,5.3,10.8,8.6,18.1,8.6c12.9,0,23.3-10.4,23.3-23.3s-10.4-23.3-23.3-23.3
		c-12.9,0-23.3,10.5-23.3,23.3C161.2,65.8,163.1,71,166.4,75"/>
	<path class="st1" d="M80.5,109.7c4.6-3.5,10.4-5.6,16.6-5.6c8.6,0,16.2,3.9,21.2,10.1"/>
	<path class="st1" d="M118.3,114.1c1.5,1.9,2.8,3.9,3.8,6.2"/>
	<path class="st1" d="M73.4,117.7c-2.3,4-3.7,8.7-3.7,13.7c0,15.1,12.2,27.3,27.3,27.3c14.2,0,25.9-10.9,27.2-24.8
		c0.1-0.8,0.1-1.7,0.1-2.6c0-3.9-0.8-7.7-2.3-11.1v0l0,0"/>
	<path class="st1" d="M80.5,109.7L80.5,109.7c-0.1,0-0.1,0.1-0.2,0.1c-2.8,2.2-5.1,4.8-6.9,7.9"/>
	<circle cx="122.1" cy="34.2" r="5.1"/>
	<circle cx="109.5" cy="22.3" r="4.2"/>
	<circle cx="107.8" cy="82.9" r="6"/>
	<circle cx="108.8" cy="66.5" r="5.1"/>
	<circle cx="95.1" cy="27.2" r="4"/>
	<line class="st1" x1="124.3" y1="133.9" x2="172.7" y2="130"/>
</g>
</svg>
