<?xml version="1.0" encoding="utf-8"?>
<!-- Generator: Adobe Illustrator 23.0.1, SVG Export Plug-In . SVG Version: 6.00 Build 0)  -->
<svg version="1.1" id="Layer_1" xmlns="http://www.w3.org/2000/svg" xmlns:xlink="http://www.w3.org/1999/xlink" x="0px" y="0px"
	 viewBox="0 0 239.5 166.8" style="enable-background:new 0 0 239.5 166.8;" xml:space="preserve">
<style type="text/css">
	.st0{fill:none;stroke:#FFFFFF;stroke-width:5;stroke-miterlimit:10;}
	.st1{fill:none;stroke:#FFFFFF;stroke-width:6;stroke-miterlimit:10;}
	.st2{fill:#FFFFFF;}
</style>
<title>mind_logo</title>
<line class="st0" x1="57.2" y1="53" x2="83.1" y2="71.7"/>
<line class="st0" x1="113.7" y1="75.5" x2="94.9" y2="75.5"/>
<line class="st0" x1="116.4" y1="58.6" x2="94" y2="72.2"/>
<line class="st0" x1="113.6" y1="35" x2="91.9" y2="70"/>
<line class="st0" x1="113.6" y1="24" x2="106.9" y2="13.5"/>
<line class="st0" x1="121.2" y1="8.5" x2="118.3" y2="23.1"/>
<line class="st0" x1="132.4" y1="21.2" x2="122.8" y2="26.4"/>
<line class="st1" x1="136.7" y1="119.1" x2="136.7" y2="119.1"/>
<line class="st0" x1="75.8" y1="134.9" x2="24.1" y2="148.1"/>
<line class="st0" x1="53.8" y1="101" x2="80" y2="116.1"/>
<line class="st0" x1="88.2" y1="106.7" x2="51.5" y2="58.8"/>
<line class="st1" x1="88.2" y1="106.7" x2="88.2" y2="106.7"/>
<line class="st0" x1="188.2" y1="66.3" x2="132.2" y2="111.9"/>
<path class="st1" d="M113.6,35c-3-1.9-4-5.9-2-9c0.5-0.8,1.2-1.5,2-2"/>
<path class="st1" d="M118.3,23.1c1.9,0.4,3.6,1.6,4.5,3.3"/>
<path class="st1" d="M113.5,24c1.4-0.9,3.1-1.2,4.8-0.9"/>
<path class="st1" d="M113.6,35c3,1.9,7.1,1,9-2c0.7-1,1-2.3,1-3.5c0-1.1-0.3-2.1-0.8-3.1"/>
<path class="st1" d="M83.1,71.7c-2.1,2.9-1.5,7,1.5,9.1c2.9,2.1,7,1.5,9.1-1.5c0.8-1.1,1.2-2.5,1.2-3.8"/>
<path class="st1" d="M94,72.2c-0.5-0.9-1.3-1.6-2.1-2.2"/>
<path class="st1" d="M83.1,71.7c2-2.8,5.8-3.5,8.7-1.7"/>
<path class="st1" d="M94,72.2c0.6,1,1,2.2,1,3.4"/>
<path class="st1" d="M195.5,133.2c3.1,7.1,11.4,10.2,18.5,7.1c7.1-3.1,10.2-11.4,7.1-18.5c-3.1-7.1-11.4-10.2-18.5-7.1
	c-5.1,2.3-8.3,7.3-8.3,12.8C194.3,129.4,194.7,131.4,195.5,133.2"/>
<circle class="st1" cx="13.5" cy="150.8" r="10.5"/>
<path class="st1" d="M53.8,101c3.5-6,1.4-13.8-4.7-17.2s-13.8-1.4-17.2,4.7c-3.5,6-1.4,13.8,4.7,17.2c1.9,1.1,4.1,1.7,6.3,1.7
	C47.4,107.3,51.6,104.9,53.8,101"/>
<path class="st1" d="M57.2,53c9.1-12.5,6.2-30-6.3-39.1s-30-6.2-39.1,6.3s-6.2,30,6.3,39.1c10,7.2,23.6,7.1,33.4-0.5
	C53.7,57.2,55.6,55.2,57.2,53"/>
<path class="st1" d="M188.3,66.3c9.5,11.6,26.6,13.4,38.2,3.9s13.4-26.6,3.9-38.2s-26.6-13.4-38.2-3.9c-6.3,5.2-10,12.9-10,21.1
	C182.2,55.4,184.3,61.5,188.3,66.3"/>
<path class="st1" d="M88.2,106.7c13.7-10.4,33.1-8.1,44,5.2"/>
<path class="st1" d="M132.2,111.9c1.8,2.2,3.3,4.6,4.4,7.2"/>
<path class="st1" d="M80,116.1c-8.8,15.2-3.6,34.7,11.7,43.5c15.2,8.8,34.7,3.6,43.5-11.7c2.3-4,3.7-8.4,4.1-12.9c0.1-1,0.1-2,0.1-3
	c0-4.4-0.9-8.8-2.7-12.9l0,0"/>
<path class="st1" d="M88.2,106.7L88.2,106.7c-0.1,0.1-0.1,0.1-0.2,0.1c-3.2,2.5-5.9,5.7-8,9.2"/>
<circle class="st2" cx="136.7" cy="18.8" r="5.9"/>
<circle class="st2" cx="122" cy="4.9" r="4.9"/>
<circle class="st2" cx="120" cy="75.5" r="7"/>
<circle class="st2" cx="121.2" cy="56.4" r="6"/>
<circle class="st2" cx="105.2" cy="10.6" r="4.6"/>
<line class="st1" x1="139.3" y1="134.9" x2="195.6" y2="130.3"/>
</svg>
